<svg xmlns="http://www.w3.org/2000/svg" xmlns:xlink="http://www.w3.org/1999/xlink" width="46.49" height="44.04" viewBox="0 0 46.49 44.04">
  <defs>
    <clipPath id="clip-path">
      <rect id="Rectangle_1101" data-name="Rectangle 1101" width="46.49" height="44.04" fill="none"/>
    </clipPath>
  </defs>
  <g id="Group_1455" data-name="Group 1455" transform="translate(5.406 5.121)">
    <g id="Group_1454" data-name="Group 1454" transform="translate(-5.406 -5.121)" clip-path="url(#clip-path)">
      <path id="Path_4352" data-name="Path 4352" d="M22.328,0H35.381a2.691,2.691,0,0,1,2.611,2.662V9.984a2.654,2.654,0,0,1-2.611,2.662H28.327a.738.738,0,0,0-.444.167L25.328,15.2H28.66a2.547,2.547,0,0,1,2.223-1.276h13a2.655,2.655,0,0,1,2.611,2.663v5.99a2.618,2.618,0,0,1-2.611,2.662H35.6a.738.738,0,0,0-.444.167l-2.332,2.219V41.6a2.464,2.464,0,0,1-2.445,2.44h-12a2.463,2.463,0,0,1-2.443-2.44V21.522h-.834v3.049a.8.8,0,0,1-.444.722.6.6,0,0,1-.333.111.543.543,0,0,1-.5-.222h-.056l-3.721-3.495a.828.828,0,0,0-.389-.165H2.611A2.607,2.607,0,0,1,0,18.914V10.1A2.619,2.619,0,0,1,2.611,7.432h13A2.619,2.619,0,0,1,18.218,10.1v5.1h4.61V12.646h-.5a2.653,2.653,0,0,1-2.61-2.662V2.662A2.691,2.691,0,0,1,22.328,0m0,1.331a1.341,1.341,0,0,0-1.277,1.331V9.984a1.354,1.354,0,0,0,1.277,1.387h.834a.985.985,0,0,1,.945,1v2.219l2.887-2.719a2,2,0,0,1,1.333-.5h7.054a1.355,1.355,0,0,0,1.278-1.387V2.662a1.341,1.341,0,0,0-1.278-1.331ZM24.621,2.94h4.3a.658.658,0,0,1,.669.586.621.621,0,0,1-.669.587h-4.3a.573.573,0,0,1-.613-.587.605.605,0,0,1,.613-.586m0,2.94h8.471a.646.646,0,0,1,.664.562.689.689,0,0,1-.664.613H24.616a.636.636,0,0,1-.608-.613.592.592,0,0,1,.608-.562m0,2.695h2.887a.561.561,0,0,1,.611.562.636.636,0,0,1-.611.612H24.619a.636.636,0,0,1-.611-.612.561.561,0,0,1,.611-.562M2.611,8.708A1.363,1.363,0,0,0,1.278,10.1v8.819a1.35,1.35,0,0,0,1.333,1.331H9.665a2.155,2.155,0,0,1,1.278.5l2.943,2.718V21.244a.95.95,0,0,1,.945-1h.777a1.35,1.35,0,0,0,1.333-1.331V10.1a1.363,1.363,0,0,0-1.333-1.388ZM4.58,11.759H13a.694.694,0,0,1,.66.706.658.658,0,0,1-.66.7H4.58a.692.692,0,0,1-.66-.7.736.736,0,0,1,.66-.706m0,2.94H13a.645.645,0,0,1,.66.612c0,.358-.275.562-.66.562H4.58a.606.606,0,0,1-.66-.562.686.686,0,0,1,.66-.612m26.3.554a1.315,1.315,0,0,0-1.333,1.332V23.3a.63.63,0,0,0,.611.666,1.2,1.2,0,0,1,1.222,1.22v2l2.944-2.718a1.758,1.758,0,0,1,1.277-.5h8.276a1.363,1.363,0,0,0,1.333-1.387v-5.99a1.351,1.351,0,0,0-1.333-1.332ZM18.218,16.474V18.8H28.272V16.474H18.218Zm5.025.674a.461.461,0,1,1,0,.922.461.461,0,1,1,0-.922m.686,0h1.837a.441.441,0,0,1,.39.462c0,.288-.167.46-.39.46H23.93a.18.18,0,0,1-.167-.172.776.776,0,0,0,0-.577.181.181,0,0,1,.167-.173m-16.45.246h5.751a.593.593,0,1,1,0,1.174H7.48a.6.6,0,0,1-.62-.562.606.606,0,0,1,.62-.612m26.764,1.715a.707.707,0,0,1,.735.682.718.718,0,0,1-.735.735.707.707,0,0,1-.682-.735.7.7,0,0,1,.682-.682m3.33,0a.717.717,0,1,1,0,1.417.717.717,0,1,1,0-1.417m2.94,0a.717.717,0,1,1-.827.682.762.762,0,0,1,.827-.682m-22.573.97a2.221,2.221,0,0,1-.723.888V39.159H31.549V28.787l-.111.111a.9.9,0,0,1-.5.167c-.111,0-.279-.056-.39-.056a.935.935,0,0,1-.444-.777v-3A1.907,1.907,0,0,1,28.272,23.3V20.078Zm-.723,20.356V41.6a1.163,1.163,0,0,0,1.167,1.109h12A1.162,1.162,0,0,0,31.549,41.6V40.434Zm6.024.722h2.7a.461.461,0,0,1,0,.922h-2.7a.461.461,0,0,1,0-.922" transform="translate(0 0)" fill="#fff"/>
    </g>
  </g>
</svg>
