<svg id="Group_1462" data-name="Group 1462" xmlns="http://www.w3.org/2000/svg" xmlns:xlink="http://www.w3.org/1999/xlink" width="48.462" height="45.146" viewBox="0 0 48.462 45.146">
  <defs>
    <clipPath id="clip-path">
      <rect id="Rectangle_1104" data-name="Rectangle 1104" width="48.462" height="45.146" fill="none" stroke="#fff" stroke-width="1"/>
    </clipPath>
  </defs>
  <g id="Group_1461" data-name="Group 1461" clip-path="url(#clip-path)">
    <path id="Path_4355" data-name="Path 4355" d="M63.7,52.366c-4.933-2.631-6.666-5.693-5.658-9.8A7.9,7.9,0,0,1,65.8,36.686a7.779,7.779,0,0,1,7.657,6.128c.964,3.873-.849,6.968-5.688,9.549A17.044,17.044,0,0,1,77.91,57.371a1.326,1.326,0,0,1-.951.169c-.74.028-1.112.356-1.1,1.134.024,1.3-.015,2.592.015,3.888.013.549-.181.731-.722.719-1.257-.029-2.516.008-3.774-.013-.872-.014-1.247.385-1.23,1.248.024,1.219-.026,2.441.019,3.659.022.6-.169.789-.763.8a121.916,121.916,0,0,1-15.633-.622c-1.436-.17-2.867-.381-4.307-.5-.671-.058-.779-.269-.688-.93C49.82,59.37,55.674,53.587,63.7,52.366Z" transform="translate(-37.598 -28.293)" fill="none" stroke="#fff" stroke-width="1"/>
    <path id="Path_4356" data-name="Path 4356" d="M15.461,16.1c-4.038-1.607-5.935-4.27-5.864-8.075A7.955,7.955,0,0,1,16.268.57a8.031,8.031,0,0,1,8.793,5.356c.261.823-.176.963-.722,1.219a10.162,10.162,0,0,0-6.232,9.668,9.5,9.5,0,0,0,1.768,5.569c.253.371.509.741.807,1.176a20.735,20.735,0,0,0-8.31,5.936,19.561,19.561,0,0,0-1.75,2.39,1.222,1.222,0,0,1-1.37.678q-3.965-.474-7.937-.875c-.67-.068-.907-.261-.783-1A17.045,17.045,0,0,1,15.025,16.3,2.412,2.412,0,0,0,15.461,16.1Z" transform="translate(-0.386 -0.385)" fill="none" stroke="#fff" stroke-width="1"/>
    <path id="Path_4357" data-name="Path 4357" d="M156.3,149.023c-1.622,0-1.622,0-1.623-1.6,0-.952-.045-1.906.014-2.855.046-.742-.191-1.022-.952-.99-1.178.049-2.361-.007-3.54.017-.714.014-1-.242-1.014-1-.04-2.272-.07-2.242,2.143-2.283,1.087-.02,2.534.5,3.158-.232.535-.626.18-2.029.186-3.088.013-2.247,0-2.229,2.307-2.1.66.036.965.248.944.949-.036,1.217.022,2.437-.021,3.654-.022.644.184.869.838.846,1.217-.044,2.437.008,3.655-.019.727-.016,1.016.262,1,1.011-.064,2.535.333,2.223-2.245,2.269-1.02.019-2.329-.432-2.986.186-.717.676-.146,2.015-.244,3.06-.018.189,0,.38,0,.571C157.918,149.023,157.918,149.023,156.3,149.023Z" transform="translate(-115.05 -103.991)" fill="none" stroke="#fff" stroke-width="1"/>
  </g>
</svg>
