<svg xmlns="http://www.w3.org/2000/svg" xmlns:xlink="http://www.w3.org/1999/xlink" width="13.668" height="13.668" viewBox="0 0 13.668 13.668">
  <defs>
    <clipPath id="clip-path">
      <rect id="Rectangle_778" data-name="Rectangle 778" width="13.668" height="13.668" fill="#fff"/>
    </clipPath>
  </defs>
  <g id="Mask_Group_1" data-name="Mask Group 1" clip-path="url(#clip-path)">
    <g id="Layer_2" data-name="Layer 2" transform="translate(0.153 3.122)">
      <g id="Layer_1" data-name="Layer 1">
        <g id="body_service" data-name="body service">
          <path id="Path_162" data-name="Path 162" d="M5.46,0A5.6,5.6,0,0,1,9.992,1.988a1.361,1.361,0,0,0,.653.379,5.367,5.367,0,0,1,2.087.964,2.407,2.407,0,0,1,.936,1.85.775.775,0,0,1-.584.86.726.726,0,0,0-.378.351,1.681,1.681,0,0,1-3.065.082.571.571,0,0,0-.41-.259C7.7,6.2,6.163,6.206,4.63,6.2a.425.425,0,0,0-.465.28,1.55,1.55,0,0,1-1.506.94,1.667,1.667,0,0,1-1.522-1,.869.869,0,0,0-.424-.357C.147,5.829.035,5.7.007,5.094A4.535,4.535,0,0,1,4.032.156C4.5.082,4.983.051,5.46,0ZM5.7.743c.082.585.175,1.139.231,1.7.031.288.169.351.433.351.831-.013,1.665,0,2.494-.006.465,0,.526-.1.311-.511A3.468,3.468,0,0,0,5.7.743Zm-.521,2.04c-.046-.5-.07-.943-.126-1.372-.1-.748-.109-.765-.848-.637A2.5,2.5,0,0,0,2.178,2.231c-.145.325-.057.536.291.545C3.35,2.8,4.234,2.784,5.182,2.784ZM2.7,6.661a.887.887,0,0,0,.892-.925.925.925,0,0,0-.937-.9.944.944,0,0,0-.9.947.9.9,0,0,0,.948.876Zm8.439,0a.919.919,0,0,0,.945-.885.967.967,0,0,0-.909-.94.926.926,0,0,0-.927.906.876.876,0,0,0,.891.919Z" transform="translate(0)" fill="#fff"/>
        </g>
      </g>
    </g>
  </g>
</svg>
