<svg xmlns="http://www.w3.org/2000/svg" width="24.485" height="24.516" viewBox="0 0 24.485 24.516">
  <path id="Path_4246" data-name="Path 4246" d="M1719.244,1147.819a12.242,12.242,0,1,1-12.28-12.284A12.21,12.21,0,0,1,1719.244,1147.819Zm-11.437-2.314c-.1-1.143-.1-1.143-1.151-1.143-.555,0-1.111.012-1.666,0-.342-.01-.5.087-.5.467q.013,4.163-.012,8.327c0,.4.135.538.527.526a16.371,16.371,0,0,1,1.967.008c.663.058.8-.212.782-.818-.042-1.437-.038-2.876-.012-4.313a1.658,1.658,0,0,1,2.229-1.706,1.756,1.756,0,0,1,1.041,1.847c.021,1.462.034,2.925.014,4.387-.006.468.151.617.609.6.731-.031,1.464-.023,2.2,0,.383.01.536-.113.532-.518-.019-1.716.054-3.435-.029-5.147a3.645,3.645,0,0,0-4.823-3.6A3.94,3.94,0,0,0,1707.807,1145.506Zm-5.105,3.467h-.01c0-1.339-.021-2.678.012-4.016.011-.477-.166-.632-.6-.618-.58.018-1.163.049-1.741.019-.465-.025-.607.132-.6.6q.041,4.055.027,8.11c0,.45.115.644.593.616a14.583,14.583,0,0,1,1.742,0c.482.03.6-.171.59-.616C1702.688,1151.7,1702.7,1150.337,1702.7,1148.973Zm-1.534-9a1.615,1.615,0,0,0-1.749,1.583,1.779,1.779,0,0,0,3.548.025A1.616,1.616,0,0,0,1701.168,1139.969Z" transform="translate(-1694.759 -1135.536)" fill="#fff"/>
</svg>
