<svg xmlns="http://www.w3.org/2000/svg" width="194.459" height="66.081" viewBox="0 0 194.459 66.081">
  <g id="Group_1311" data-name="Group 1311" transform="translate(0 0)">
    <g id="Group_1304" data-name="Group 1304" transform="translate(55.659 22.003)">
      <path id="Path_4234" data-name="Path 4234" d="M66.421,28.469A10.534,10.534,0,1,1,55.886,17.934,10.534,10.534,0,0,1,66.421,28.469Zm-3.754,0a6.779,6.779,0,1,0-6.78,6.779A6.788,6.788,0,0,0,62.667,28.467Z" transform="translate(-45.353 -17.928)" fill="#fff"/>
      <path id="Path_4235" data-name="Path 4235" d="M85.447,17.929v21.08l-3.768-2.9L68.136,25.666V39.009H64.368v-21l3.768,2.9,13.544,10.44V17.929Z" transform="translate(-41.032 -17.929)" fill="#fff"/>
      <path id="Path_4236" data-name="Path 4236" d="M105.075,17.929v21.08l-3.768-2.9L87.764,25.666V39.009H84v-21l3.768,2.9,13.544,10.44V17.929Z" transform="translate(-36.572 -17.929)" fill="#fff"/>
      <path id="Path_4237" data-name="Path 4237" d="M107.378,23.625v1.954h13.557v3.754H107.378v3.981a1.94,1.94,0,0,0,1.928,1.94h15.385v3.755H109.306a5.69,5.69,0,0,1-5.683-5.7V23.625a5.69,5.69,0,0,1,5.683-5.7h15.385v3.755H109.306A1.94,1.94,0,0,0,107.378,23.625Z" transform="translate(-32.112 -17.929)" fill="#fff"/>
      <path id="Path_4238" data-name="Path 4238" d="M125.412,28.47a6.789,6.789,0,0,0,6.784,6.784h10.54v3.755H132.2a10.54,10.54,0,0,1,0-21.08h10.54v3.755H132.2A6.79,6.79,0,0,0,125.412,28.47Z" transform="translate(-28.014 -17.929)" fill="#fff"/>
      <path id="Path_4239" data-name="Path 4239" d="M162.353,17.944V21.7H153.7V39.012H149.94V21.7h-8.655V17.944Z" transform="translate(-23.553 -17.926)" fill="#fff"/>
    </g>
    <g id="Group_1305" data-name="Group 1305" transform="translate(0 0)">
      <path id="Path_4240" data-name="Path 4240" d="M28.153,32.992a9.178,9.178,0,0,0,6.437,8.57A8.861,8.861,0,0,0,44.761,37.7a5.1,5.1,0,0,1,4.362-2.669,4.914,4.914,0,0,1,4.7,7.028,14.256,14.256,0,0,1-2.744,3.932c-1.944,2.08-2.1,3.838-.66,6.221a3.262,3.262,0,0,0,2.826,1.618A6.136,6.136,0,1,1,47.008,57.7a4.484,4.484,0,0,0-5.469-6.167A19,19,0,0,1,18.875,38.2a4.381,4.381,0,0,0-3.519-3.3,4.523,4.523,0,0,0-4.477,1.821,5.967,5.967,0,0,1-7.656,1.646A5.769,5.769,0,0,1,0,32.718a5.628,5.628,0,0,1,3.623-5.251A5.926,5.926,0,0,1,10.175,28.5a8.279,8.279,0,0,1,.929,1.012,4.283,4.283,0,0,0,4.158,1.611,4.3,4.3,0,0,0,3.6-3.206,18.717,18.717,0,0,1,5.3-8.706A18.986,18.986,0,0,1,40.7,14.381c.454.069.9.187,1.351.268a4.455,4.455,0,0,0,5.141-6.039c-1.215-3.4-.032-6.679,3.023-8.021a5.805,5.805,0,0,1,6.238.718A5.652,5.652,0,0,1,58.6,7.313a5.675,5.675,0,0,1-4.44,4.57,12.163,12.163,0,0,0-1.853.511,4.4,4.4,0,0,0-1.648,7.233A24.111,24.111,0,0,1,53.26,23a5.129,5.129,0,0,1-1.216,7.182,5.076,5.076,0,0,1-7.163-1.756c-2.175-3.309-5.216-4.942-9.137-4.282a8.67,8.67,0,0,0-7.295,6.816A16.886,16.886,0,0,0,28.153,32.992Z" transform="translate(0 0)" fill="#fff"/>
      <path id="Path_4241" data-name="Path 4241" d="M31.283,22.574a5.322,5.322,0,1,1-.106,10.644,5.323,5.323,0,0,1,.106-10.644Z" transform="translate(5.907 5.13)" fill="#fff"/>
    </g>
  </g>
</svg>
