<svg xmlns="http://www.w3.org/2000/svg" xmlns:xlink="http://www.w3.org/1999/xlink" width="96.82" height="169.706" viewBox="0 0 96.82 169.706">
  <defs>
    <clipPath id="clip-path">
      <rect id="Rectangle_1108" data-name="Rectangle 1108" width="96.82" height="132.602" fill="none"/>
    </clipPath>
  </defs>
  <g id="Group_1477" data-name="Group 1477" transform="translate(0 -40.196)">
    <path id="Path_4362" data-name="Path 4362" d="M0-4.8V132.6L48.41,97.346,96.82,132.6V-4.8Z" transform="translate(0 45)" fill="#d5a338"/>
    <g id="Group_1476" data-name="Group 1476" transform="translate(0 77.301)">
      <g id="Group_1475" data-name="Group 1475" clip-path="url(#clip-path)">
        <path id="Path_4363" data-name="Path 4363" d="M74.364,50.034h10.37a1.755,1.755,0,0,0,1.918-1.385q2.565-7.883,5.124-15.768.68-2.091,1.364-4.181a1.205,1.205,0,0,1,.315-.574.8.8,0,0,1,1.273.233,3.78,3.78,0,0,1,.223.586q2.388,7.353,4.772,14.708.814,2.506,1.638,5.009a1.749,1.749,0,0,0,1.89,1.372h20.81a3.5,3.5,0,0,1,.488.016.8.8,0,0,1,.725.612.811.811,0,0,1-.344.916q-1.213.884-2.426,1.768c-1.092.793-2.19,1.578-3.274,2.381a.425.425,0,0,1-.649-.047,13.1,13.1,0,0,0-21.923,8.572,12.509,12.509,0,0,0,.993,6.136,13.259,13.259,0,0,0,5.9,6.488A12.69,12.69,0,0,0,110.4,78.46c.678-.03.609-.1.825.563q1.176,3.619,2.349,7.238a.91.91,0,0,1-.183,1.062.836.836,0,0,1-1.147-.025q-1.669-1.205-3.335-2.416l-6.434-4.68L96.52,75.874c-.5-.362-1-.725-1.5-1.083a1.8,1.8,0,0,0-2.061.017q-4.911,3.572-9.825,7.14-2.512,1.825-5.024,3.65c-.779.567-1.554,1.14-2.331,1.711a.874.874,0,0,1-1.069.085.845.845,0,0,1-.295-1.057q.985-3.056,1.982-6.109,2.27-6.987,4.539-13.974a1.755,1.755,0,0,0-.7-2.206c-2-1.451-4-2.89-5.993-4.341q-3.331-2.422-6.652-4.857-2.2-1.6-4.408-3.2a.884.884,0,0,1-.447-1,.848.848,0,0,1,.942-.616c1.175-.005,2.351,0,3.527,0h7.158" transform="translate(-45.595 -20.293)" fill="#fff"/>
        <path id="Path_4364" data-name="Path 4364" d="M206.93,147.472a10.57,10.57,0,1,1,10.6-10.5,10.541,10.541,0,0,1-10.6,10.5m-8.317-10.39a.583.583,0,0,0,.2.41c.209.218.422.433.633.649q2.385,2.451,4.768,4.9a.435.435,0,0,0,.694.03c.751-.677,1.513-1.344,2.266-2.019q1.975-1.769,3.945-3.544,1.659-1.495,3.312-3c.383-.35.395-.6.059-.989q-.546-.634-1.122-1.243a.577.577,0,0,0-.844-.033c-.4.35-.8.708-1.2,1.065q-3.075,2.761-6.149,5.523c-.419.376-.546.373-.93-.019-1.1-1.121-2.193-2.248-3.295-3.367-.342-.348-.534-.364-.9-.039-.441.4-.856.82-1.28,1.235a.539.539,0,0,0-.157.434" transform="translate(-142.786 -91.863)" fill="#fff"/>
      </g>
    </g>
    <text id="Preferred_Vendor" data-name="Preferred
Vendor" transform="translate(48.82 56)" font-size="12" font-family="Montserrat-Bold, Montserrat" font-weight="700"><tspan x="-38" y="0">PREFERRED</tspan><tspan x="-27" y="17">VENDOR</tspan></text>
  </g>
</svg>
