<svg xmlns="http://www.w3.org/2000/svg" xmlns:xlink="http://www.w3.org/1999/xlink" width="45.003" height="44.994" viewBox="0 0 45.003 44.994">
  <defs>
    <clipPath id="clip-path">
      <rect id="Rectangle_1100" data-name="Rectangle 1100" width="45.003" height="44.994" fill="none"/>
    </clipPath>
  </defs>
  <g id="Group_1453" data-name="Group 1453" transform="translate(4 0)">
    <g id="Group_1452" data-name="Group 1452" transform="translate(-4 0)" clip-path="url(#clip-path)">
      <path id="Path_4351" data-name="Path 4351" d="M22.483,0A22.494,22.494,0,0,1,37.956,6.11l3.426-3.369H40.125a.645.645,0,0,1-.627-.685.6.6,0,0,1,.627-.627h2.8a.648.648,0,0,1,.685.627v2.8a.659.659,0,0,1-.685.684.693.693,0,0,1-.684-.684v-1.2L38.869,7.08A22.514,22.514,0,0,1,6.553,38.428a21.565,21.565,0,0,1-2.112-2.513L1.13,39.17a.794.794,0,0,1-.514.172.612.612,0,0,1-.4-.172.594.594,0,0,1,0-.914l3.425-3.482A22.458,22.458,0,0,1,22.483,0m-.628,1.314A20.713,20.713,0,0,0,8.038,7.08L21.855,20.9Zm1.314,0V20.9L36.985,7.08A20.827,20.827,0,0,0,23.169,1.314m-16.1,6.68A21.3,21.3,0,0,0,4.555,33.86L15.689,22.725a.7.7,0,0,1,.742-.114.688.688,0,0,1,.4.571v4.053L21.57,22.5Zm30.888,0-14.5,14.5L37.956,37a21.314,21.314,0,0,0,0-29.006M33.632,18.18a.753.753,0,0,1,.476.173l4.256,4.341a.675.675,0,0,1,0,.985.681.681,0,0,1-.908,0l-4.256-4.4a.609.609,0,0,1,0-.926.594.594,0,0,1,.432-.173m4.164.7a.837.837,0,0,1,.852.881.853.853,0,0,1-1.7,0,.837.837,0,0,1,.853-.881m-4.028,2.769a.837.837,0,0,1,.853.881.853.853,0,0,1-1.7,0,.837.837,0,0,1,.852-.881M22.483,23.411,16.66,29.293a.618.618,0,0,1-.742.114.513.513,0,0,1-.4-.571V24.782L5.355,34.945a22.989,22.989,0,0,0,2.169,2.513A20.807,20.807,0,0,0,22.483,43.68a20.6,20.6,0,0,0,14.5-5.767Z" transform="translate(0 0)" fill="#fff"/>
    </g>
  </g>
</svg>
