<svg xmlns="http://www.w3.org/2000/svg" xmlns:xlink="http://www.w3.org/1999/xlink" width="44.91" height="45.146" viewBox="0 0 44.91 45.146">
  <defs>
    <clipPath id="clip-path">
      <rect id="Rectangle_1099" data-name="Rectangle 1099" width="44.91" height="45.146" transform="translate(0 0)" fill="none"/>
    </clipPath>
  </defs>
  <g id="Group_1451" data-name="Group 1451" transform="translate(0 0)">
    <g id="Group_1450" data-name="Group 1450" transform="translate(0 0)" clip-path="url(#clip-path)">
      <path id="Path_4350" data-name="Path 4350" d="M22.454,0A2.851,2.851,0,0,1,25.3,2.791c0,.108-.054.108-.054.161H41.426a2.792,2.792,0,1,1,0,5.583h-.107V32.209h3a.591.591,0,0,1,0,1.182H29.475l2.733,10.95a.663.663,0,0,1-.483.752c-.054.054-.054.054-.161.054a.731.731,0,0,1-.59-.536L28.19,33.391H16.4L13.613,44.61a.68.68,0,0,1-.643.536c-.054,0-.107,0-.107-.054a.585.585,0,0,1-.483-.752l2.733-10.95H.643a.593.593,0,1,1,0-1.182H3.59V8.535H3.483a2.791,2.791,0,0,1,0-5.583H19.668V2.791A2.84,2.84,0,0,1,22.454,0m0,1.289a1.546,1.546,0,0,0-1.554,1.5v.161h3.109c.054-.053.054-.053.054-.161a1.6,1.6,0,0,0-1.609-1.5M3.483,4.188a1.557,1.557,0,0,0,0,3.113H41.426a1.6,1.6,0,0,0,1.609-1.557,1.6,1.6,0,0,0-1.609-1.556Zm1.34,28.021H40.087V8.535H4.824ZM8.691,11.832a.608.608,0,0,1,.591.64V27.828H36.456a.644.644,0,0,1,.645.587.652.652,0,0,1-.645.64H8.691a.618.618,0,0,1-.645-.64V12.473a.618.618,0,0,1,.645-.64m5.772,0a.613.613,0,0,1,.593.648v.809h.809a.622.622,0,0,1,.647.647.611.611,0,0,1-.647.593h-.809v.863a.648.648,0,0,1-.593.647.656.656,0,0,1-.648-.647v-.863h-.862a.647.647,0,0,1-.647-.593.655.655,0,0,1,.647-.647h.862V12.48a.624.624,0,0,1,.648-.648m14.154.213a.652.652,0,0,1,.856,0l1.5,1.494a.646.646,0,0,1,0,.854.578.578,0,0,1-.481.213.463.463,0,0,1-.374-.213l-.535-.479v.053c0,6.134-4.385,10.829-10.214,10.829H12.947a.689.689,0,0,1-.641-.64.649.649,0,0,1,.641-.64h6.418c5.081,0,8.931-4.054,8.984-9.5l-.374.373a.6.6,0,1,1-.856-.854Zm4.868,8.307a.6.6,0,0,1,.594.594v1.242h1.242a.614.614,0,0,1,.594.649.6.6,0,0,1-.594.594H34.08V24.62a.613.613,0,0,1-.594.648.624.624,0,0,1-.648-.648V23.432H31.595A.6.6,0,0,1,31,22.837a.614.614,0,0,1,.594-.649h1.243V20.947a.613.613,0,0,1,.648-.594" transform="translate(0 0)" fill="#fff"/>
    </g>
  </g>
</svg>
