<svg xmlns="http://www.w3.org/2000/svg" xmlns:xlink="http://www.w3.org/1999/xlink" width="13.668" height="13.668" viewBox="0 0 13.668 13.668">
  <defs>
    <clipPath id="clip-path">
      <rect id="Rectangle_780" data-name="Rectangle 780" width="13.668" height="13.668" fill="#fff"/>
    </clipPath>
  </defs>
  <g id="Mask_Group_2" data-name="Mask Group 2" clip-path="url(#clip-path)">
    <g id="Layer_2" data-name="Layer 2" transform="translate(0.351 1.14)">
      <g id="Layer_1" data-name="Layer 1">
        <g id="detailing">
          <path id="Path_163" data-name="Path 163" d="M11.18,10.823a6.934,6.934,0,0,1-1.542-.211,5.248,5.248,0,0,0-1.019-.15,2.209,2.209,0,0,0-1.271.352c-.2.13-.4.271-.606.4a2.175,2.175,0,0,1-2.3.077,5.7,5.7,0,0,1-1.1-.8q-.171-.149-.348-.289a.929.929,0,0,0-.563-.194c-.284-.008-.569-.019-.854-.012A1.845,1.845,0,0,1,.389,9.568a1.548,1.548,0,0,1-.256-.249A.407.407,0,0,1,.21,8.658a2.456,2.456,0,0,1,.556-.29,4.923,4.923,0,0,1,1.739-.3c2.683,0,5.366,0,8.049.024a3.737,3.737,0,0,1,2.218.728,1.6,1.6,0,0,1,.326.333.7.7,0,0,1-.092.99,2.2,2.2,0,0,1-.747.451A3.322,3.322,0,0,1,11.18,10.823Z" transform="translate(0.002 -0.192)" fill="#fff"/>
          <path id="Path_164" data-name="Path 164" d="M9.426,2.228,10.2,2.9l1.523,1.318c.1.083.1.085.033.195-.129.228-.252.458-.387.683a1.239,1.239,0,0,0-.157.643,1.925,1.925,0,0,1-.1.638,1.751,1.751,0,0,1-1,1.066,1.265,1.265,0,0,1-.466.084c-1.263.006-2.527,0-3.79,0A.951.951,0,0,1,5.348,7.4a.43.43,0,0,1-.155-.644,1.055,1.055,0,0,1,.676-.471c.246-.055.5-.083.748-.12.276-.04.552-.075.828-.113a.105.105,0,0,0,.065-.032c-.088-.012-.175-.028-.263-.037-.3-.03-.6-.059-.9-.085a1.489,1.489,0,0,0-1.048.31c-.415.313-.82.642-1.226.966a1.6,1.6,0,0,1-.6.346.736.736,0,0,1-.664-.154.446.446,0,0,1-.14-.494,1.534,1.534,0,0,1,.362-.64A20.2,20.2,0,0,1,4.843,4.364a2.925,2.925,0,0,1,1.289-.629c.58-.147,1.158-.307,1.734-.476a3.315,3.315,0,0,0,1.451-.91C9.353,2.312,9.386,2.272,9.426,2.228Z" transform="translate(-0.061 -0.054)" fill="#fff"/>
          <path id="Path_165" data-name="Path 165" d="M12.62,4.016a1.34,1.34,0,0,1-.248-.131q-.812-.678-1.615-1.366-.492-.422-.969-.862a.28.28,0,0,1-.047-.413A5.4,5.4,0,0,1,10.1.788c.193-.227.393-.45.594-.669a.317.317,0,0,1,.465-.032q.871.728,1.734,1.463c.3.255.588.52.879.783a.305.305,0,0,1,.048.449c-.316.38-.641.753-.97,1.122A.754.754,0,0,1,12.62,4.016Z" transform="translate(-0.228 -0.001)" fill="#fff"/>
          <path id="Path_166" data-name="Path 166" d="M0,4.054c.093-.036.165-.069.241-.091A1.662,1.662,0,0,0,1.471,2.644c.023-.1.053-.2.08-.3,0-.007.009-.012.025-.03.024.089.041.169.068.245a5.465,5.465,0,0,0,.245.651,1.471,1.471,0,0,0,.9.717l.243.078a1.188,1.188,0,0,1,.11.052c-.056.027-.089.047-.124.059-.139.05-.282.089-.417.149a1.61,1.61,0,0,0-.921,1.156c-.029.117-.062.234-.093.351H1.556c-.023-.08-.048-.159-.068-.239A2.2,2.2,0,0,0,1.2,4.815,1.691,1.691,0,0,0,.277,4.17C.207,4.148.138,4.12.069,4.094A.565.565,0,0,1,0,4.054Z" transform="translate(0.001 -0.056)" fill="#fff"/>
          <path id="Path_167" data-name="Path 167" d="M4.238,1.644a1.673,1.673,0,0,0,.837-.451A1.881,1.881,0,0,0,5.452.33h.022c.015.04.03.08.044.121.044.132.079.268.133.4a1.244,1.244,0,0,0,.8.723l.239.079,0,.023-.11.047a3.8,3.8,0,0,0-.459.2,1.31,1.31,0,0,0-.577.843q-.034.13-.069.261l-.022,0c-.015-.056-.033-.112-.046-.169a1.728,1.728,0,0,0-.249-.612,1.261,1.261,0,0,0-.628-.463l-.294-.1Z" transform="translate(-0.099 -0.009)" fill="#fff"/>
        </g>
      </g>
    </g>
  </g>
</svg>
