<svg id="Group_1307" data-name="Group 1307" xmlns="http://www.w3.org/2000/svg" width="24.479" height="24.513" viewBox="0 0 24.479 24.513">
  <path id="Path_4247" data-name="Path 4247" d="M1694.758,966.637a12.24,12.24,0,1,1,12.2,12.262A12.229,12.229,0,0,1,1694.758,966.637Zm12.087,4.969c1.717,0,3.433.009,5.149,0a2.213,2.213,0,0,0,2.357-2.38q.013-2.8,0-5.6a2.238,2.238,0,0,0-2.431-2.468q-5.036-.023-10.072,0a2.226,2.226,0,0,0-2.434,2.391q-.034,2.839,0,5.679a2.225,2.225,0,0,0,2.434,2.386C1703.513,971.613,1705.179,971.606,1706.845,971.606Z" transform="translate(-1694.758 -954.386)" fill="#fff"/>
  <path id="Path_4248" data-name="Path 4248" d="M1765.437,1013.6l4.144,2.741-4.144,2.733Z" transform="translate(-1754.722 -1004.625)" fill="#fff"/>
</svg>
