<svg id="Group_1481" data-name="Group 1481" xmlns="http://www.w3.org/2000/svg" xmlns:xlink="http://www.w3.org/1999/xlink" width="27.49" height="23.672" viewBox="0 0 27.49 23.672">
  <defs>
    <clipPath id="clip-path">
      <rect id="Rectangle_1110" data-name="Rectangle 1110" width="27.49" height="23.672" fill="#fff"/>
    </clipPath>
  </defs>
  <g id="Group_1480" data-name="Group 1480" clip-path="url(#clip-path)">
    <path id="Path_4365" data-name="Path 4365" d="M53.949,33.542a14.61,14.61,0,0,1-.617,2.483c-.389,1.486-.8,2.967-1.167,4.458-.149.6-.453.809-1.046.6-.255-.089-.526-.133-.787-.2-1.6-.434-1.628-.44-1.3-2.049.089-.441-.1-.54-.405-.623-4.016-1.074-8.035-2.137-12.046-3.226-.513-.139-.555.185-.658.5-.463,1.407-.467,1.426-1.912,1.005-2.11-.613-1.829-.248-1.318-2.313.333-1.345.753-2.668,1.071-4.016a6.815,6.815,0,0,1,1.6-3.085c1.395-1.548,2.721-3.158,4.083-4.735a2.46,2.46,0,0,1,2.748-.846c2.726.765,5.466,1.479,8.206,2.2A2.348,2.348,0,0,1,52.314,25.3c.612,2.732,1.1,5.492,1.635,8.241m-16.8-5.415c4.724,1.27,9.258,2.489,13.792,3.71.554.149.6-.081.5-.561q-.445-2.122-.819-4.26a1.767,1.767,0,0,0-1.409-1.562q-3.5-.907-6.98-1.874a1.287,1.287,0,0,0-1.41.336c-1.2,1.344-2.375,2.717-3.675,4.212m-.408,4.906a1.678,1.678,0,0,0,1.7-1.542,1.626,1.626,0,0,0-1.554-1.661,1.6,1.6,0,1,0-.143,3.2M51.8,34.969a1.6,1.6,0,0,0-1.666-1.533,1.57,1.57,0,0,0-1.554,1.636A1.516,1.516,0,0,0,50.218,36.6,1.625,1.625,0,0,0,51.8,34.969" transform="translate(-26.458 -17.49)" fill="#fff"/>
    <path id="Path_4366" data-name="Path 4366" d="M4.067,114.138c-1,0-2,.039-2.991-.02-.361-.021-.989.368-1.058-.421-.063-.725,0-1.644.831-1.648A2.872,2.872,0,0,0,3,111.012a1.779,1.779,0,0,1,2.669.524c.247.381.4.584.947.46a1.346,1.346,0,0,1,1.539,1.814c-.109.39-.39.321-.643.323-1.148.009-2.3,0-3.445,0" transform="translate(0 -90.534)" fill="#fff"/>
    <path id="Path_4367" data-name="Path 4367" d="M41.2,6.53q-.31-2.472-.62-4.944c-.041-.328-.093-.656-.11-.986-.03-.558.336-.611.774-.6s.933-.051.863.59c-.217,1.982-.475,3.959-.716,5.938H41.2" transform="translate(-33.127 0)" fill="#fff"/>
    <path id="Path_4368" data-name="Path 4368" d="M24.514,18.538q-1.192-1.58-2.382-3.161c-.257-.342-.426-.656.1-.95.474-.262.71-.115.893.337.5,1.237,1.017,2.468,1.527,3.7Z" transform="translate(-17.917 -11.703)" fill="#fff"/>
    <path id="Path_4369" data-name="Path 4369" d="M53.651,16.418c.53-1.245,1.072-2.485,1.584-3.737.187-.457.4-.6.876-.339.543.3.35.594.089.938q-1.226,1.615-2.445,3.235l-.1-.1" transform="translate(-43.915 -9.994)" fill="#fff"/>
  </g>
</svg>
