<svg id="Group_1483" data-name="Group 1483" xmlns="http://www.w3.org/2000/svg" xmlns:xlink="http://www.w3.org/1999/xlink" width="18.11" height="19.835" viewBox="0 0 18.11 19.835">
  <defs>
    <clipPath id="clip-path">
      <rect id="Rectangle_1111" data-name="Rectangle 1111" width="18.11" height="19.835" fill="#fff"/>
    </clipPath>
  </defs>
  <g id="Group_1482" data-name="Group 1482" clip-path="url(#clip-path)">
    <path id="Path_4370" data-name="Path 4370" d="M9.367,19.835H8.75c-.018-.022-.031-.053-.054-.063a13.386,13.386,0,0,1-5.871-5.014A17.763,17.763,0,0,1,.036,3.669,1.221,1.221,0,0,1,1.249,2.411c.16-.018.322-.023.484-.028a12.731,12.731,0,0,0,4.96-1.191C7.463.84,8.135.308,8.927,0H9.1a3.745,3.745,0,0,1,.8.347,12.843,12.843,0,0,0,6.716,2.059,1.314,1.314,0,0,1,1.473,1.467,20.121,20.121,0,0,1-.44,5.289,15.617,15.617,0,0,1-5,8.584,15.484,15.484,0,0,1-3.284,2.089M16.919,5.363c0-.25,0-.5,0-.749,0-.191-.031-.382-.021-.572.017-.321-.116-.422-.439-.428A13.576,13.576,0,0,1,9.442,1.5a.6.6,0,0,0-.748-.016A13.67,13.67,0,0,1,1.683,3.615c-.323.008-.461.1-.477.446a17.24,17.24,0,0,0,1.02,6.864,13.193,13.193,0,0,0,6.512,7.527.606.606,0,0,0,.61.012,12.526,12.526,0,0,0,4.844-4.244,16.086,16.086,0,0,0,2.727-8.857" transform="translate(0)" fill="#fff"/>
    <path id="Path_4371" data-name="Path 4371" d="M63.337,77.544a.6.6,0,0,1-.237.476q-2.345,2.418-4.7,4.829a.583.583,0,0,1-.957.006q-1.181-1.185-2.331-2.4a.646.646,0,0,1-.01-.911c.268-.252.561-.231.885.092.571.57,1.143,1.141,1.69,1.734.207.224.311.19.5-.013,1.287-1.348,2.588-2.683,3.886-4.02a2.785,2.785,0,0,1,.354-.328.548.548,0,0,1,.62-.034.567.567,0,0,1,.292.57" transform="translate(-50.081 -70.116)" fill="#fff"/>
  </g>
</svg>
