<svg xmlns="http://www.w3.org/2000/svg" width="35.631" height="33.76" viewBox="0 0 35.631 33.76">
  <g id="Group_1403" data-name="Group 1403" transform="matrix(0.966, -0.259, 0.259, 0.966, 0.001, 6.092)">
    <path id="Path_4333" data-name="Path 4333" d="M696.211,736.406a21.983,21.983,0,0,0,20.636-18.991,14.1,14.1,0,0,0,.118-3.737,5.5,5.5,0,0,0-6.143-4.764,1.321,1.321,0,0,0-1.306,1.145c-.516,2.433-1.083,4.856-1.669,7.273a1.257,1.257,0,0,0,.849,1.623c.906.392,1,.918.571,1.82a16.106,16.106,0,0,1-7.955,7.935c-.81.381-1.371.409-1.734-.5-.4-1.016-1.126-1.071-2.085-.831q-3.244.811-6.528,1.459a1.64,1.64,0,0,0-1.509,1.836C689.361,734.365,692.045,736.668,696.211,736.406Z" transform="translate(-687.939 -707.377)" fill="#fff"/>
    <path id="Path_4334" data-name="Path 4334" d="M756.474,703.109A14.936,14.936,0,0,0,742.381,716c-.066.555-.151,1.108-.2,1.664-.033.4,0,.853.5.894.563.047.527-.446.551-.826a14.05,14.05,0,0,1,13.3-13.567c.426-.035,1.038.181,1.094-.55C757.663,703.224,757.292,703.084,756.474,703.109Z" transform="translate(-742.175 -703.106)" fill="#fff"/>
    <path id="Path_4335" data-name="Path 4335" d="M742.29,725.131c0,.379,0,.594,0,.81.009.334.137.617.5.62s.513-.27.52-.607a11.292,11.292,0,0,1,.231-2.047,11.1,11.1,0,0,1,10.3-8.941c.445-.027,1.116.123,1.053-.578-.058-.651-.722-.457-1.164-.457-5.074,0-10.132,4.269-11.174,9.452A4.7,4.7,0,0,0,742.29,725.131Z" transform="translate(-739.465 -711.111)" fill="#fff"/>
    <path id="Path_4336" data-name="Path 4336" d="M751,724.729a9.2,9.2,0,0,0-8.622,8.589c-.02.463-.292,1.185.481,1.205.622.016.524-.671.564-1.119a8.236,8.236,0,0,1,6.4-7.47c.371-.091.766-.078,1.144-.145.47-.083,1.242.107,1.2-.611C752.124,724.434,751.378,724.788,751,724.729Z" transform="translate(-736.743 -719.108)" fill="#fff"/>
    <path id="Path_4337" data-name="Path 4337" d="M748.483,735.1a6.848,6.848,0,0,0-6.294,6.24c-.011.4-.023.858.464.927.557.079.534-.411.588-.794a5.7,5.7,0,0,1,5.381-5.315c.352-.046.756-.074.73-.533C749.322,735.11,748.883,735.1,748.483,735.1Z" transform="translate(-733.895 -726.82)" fill="#fff"/>
  </g>
</svg>
