<svg id="Group_1306" data-name="Group 1306" xmlns="http://www.w3.org/2000/svg" width="24.514" height="24.516" viewBox="0 0 24.514 24.516">
  <path id="Path_4243" data-name="Path 4243" d="M1899.655,954.383a12.258,12.258,0,1,1-12.314,12.117A12.253,12.253,0,0,1,1899.655,954.383Zm7.88,12.062c0-1.415.009-2.829,0-4.244a3.633,3.633,0,0,0-3.914-3.861q-4.13,0-8.261,0a3.661,3.661,0,0,0-3.927,3.926q-.007,4.092,0,8.185a3.666,3.666,0,0,0,3.956,3.985q4.092.018,8.185,0a3.638,3.638,0,0,0,3.957-3.9C1907.553,969.174,1907.533,967.81,1907.535,966.445Z" transform="translate(-1887.339 -954.381)" fill="#fff"/>
  <path id="Path_4244" data-name="Path 4244" d="M1937.925,997.531c0,1.363.006,2.726,0,4.089a2.067,2.067,0,0,1-2.279,2.311q-4.165.011-8.33,0a2.055,2.055,0,0,1-2.255-2.254q-.005-4.165,0-8.33a2.039,2.039,0,0,1,2.237-2.272q4.2-.024,8.406,0a2.049,2.049,0,0,1,2.221,2.218C1937.932,994.7,1937.926,996.117,1937.925,997.531Zm-6.435,4.169a4.16,4.16,0,1,0-4.163-4.187A4.154,4.154,0,0,0,1931.491,1001.7Zm5.375-8.273a1.058,1.058,0,0,0-2.116-.007,1.051,1.051,0,0,0,1.052,1.062A1.072,1.072,0,0,0,1936.865,993.427Z" transform="translate(-1919.337 -985.501)" fill="#fff"/>
  <path id="Path_4245" data-name="Path 4245" d="M1955.814,1019.644a2.538,2.538,0,1,1-5.077-.044,2.538,2.538,0,1,1,5.077.044Z" transform="translate(-1941.125 -1007.57)" fill="#fff"/>
</svg>
