<svg id="Group_275" data-name="Group 275" xmlns="http://www.w3.org/2000/svg" width="21.779" height="21.772" viewBox="0 0 21.779 21.772">
  <path id="Path_3078" data-name="Path 3078" d="M147.781,197.872l-1.341-.666c0-.489.01-1.009,0-1.529a2.647,2.647,0,0,0-2.453-2.692c-1.767-.1-3.542-.054-5.313-.058-2.727-.005-5.455.011-8.182,0a2.822,2.822,0,0,0-3.113,3.081c.007,4.361,0,8.722.006,13.083a2.733,2.733,0,0,0,2.876,2.937q6.672.027,13.343,0a2.752,2.752,0,0,0,2.839-2.877c0-1.546.016-3.093-.013-4.639a1.333,1.333,0,0,1,.491-1.177,7.229,7.229,0,0,0,.726-.787l.142.083c0,.669.006,1.337,0,2.006-.02,1.771.04,3.548-.094,5.31a3.713,3.713,0,0,1-3.626,3.38c-2.726.065-5.454.031-8.181.034-1.928,0-3.857.01-5.785-.009a3.915,3.915,0,0,1-4.054-3.988q-.059-6.88,0-13.761a3.928,3.928,0,0,1,4.1-4q6.775-.017,13.55.008a3.933,3.933,0,0,1,4.08,3.911C147.814,196.29,147.781,197.056,147.781,197.872Z" transform="translate(-126.014 -191.601)" fill="#fff"/>
  <path id="Path_3079" data-name="Path 3079" d="M243.706,266.62c0-.488-.011-.937.009-1.384a.539.539,0,0,1,.18-.3q2.718-2.686,5.445-5.365a.75.75,0,0,1,1.148.024c.263.291.718.474.656.973a.916.916,0,0,1-.2.506q-2.673,2.7-5.37,5.381a.473.473,0,0,1-.267.156C244.788,266.627,244.271,266.62,243.706,266.62Z" transform="translate(-229.428 -251.155)" fill="#fff"/>
  <path id="Path_3080" data-name="Path 3080" d="M165.343,231.105h15.3v1.041h-14.51c-.791,0-.791,0-.786-.552C165.345,231.445,165.343,231.3,165.343,231.105Z" transform="translate(-162.106 -226.93)" fill="#fff"/>
  <path id="Path_3081" data-name="Path 3081" d="M181.03,257.263c.008.445-.852,1.042-1.5,1.042q-5.235,0-10.47,0h-3.287v-1.043Z" transform="translate(-162.501 -250.323)" fill="#fff"/>
  <path id="Path_3082" data-name="Path 3082" d="M165.565,284.316v-.988h8.92c-.4.372-.718.678-1.048.973a.358.358,0,0,1-.223.065q-3.779,0-7.559-.008C165.632,284.359,165.609,284.338,165.565,284.316Z" transform="translate(-160.504 -273.634)" fill="#fff"/>
  <path id="Path_3083" data-name="Path 3083" d="M165.57,310.389v-1.045h6.706c-.553.484-.852,1.122-1.764,1.071C168.886,310.324,167.251,310.389,165.57,310.389Z" transform="translate(-160.889 -296.895)" fill="#fff"/>
  <path id="Path_3084" data-name="Path 3084" d="M165.591,336.436v-1.018h5.288v1.018Z" transform="translate(-161.078 -320.223)" fill="#fff"/>
</svg>
