<svg xmlns="http://www.w3.org/2000/svg" width="21.78" height="23.859" viewBox="0 0 21.78 23.859">
  <g id="Group_1018" data-name="Group 1018" transform="translate(194.663 -190.888)">
    <path id="Path_3671" data-name="Path 3671" d="M-172.883,196.1a24.377,24.377,0,0,1-3.459,12.254,16.892,16.892,0,0,1-6.725,6.2,1.455,1.455,0,0,1-1.451-.014,17.3,17.3,0,0,1-7.568-7.714,23.141,23.141,0,0,1-2.35-7.883c-.132-1.119-.185-2.25-.225-3.377-.031-.866.436-1.28,1.306-1.3a14.221,14.221,0,0,0,8.835-3.106,1.1,1.1,0,0,1,1.441-.018,13.8,13.8,0,0,0,6.436,2.889,18.348,18.348,0,0,0,2.4.23c.915.039,1.354.445,1.364,1.367C-172.882,195.775-172.883,195.916-172.883,196.1Zm-10.866,16.7c.155-.08.279-.14.4-.208a15.359,15.359,0,0,0,6.227-6.62,20.745,20.745,0,0,0,2.007-6.265c.181-1.175.289-2.361.436-3.585a16.721,16.721,0,0,1-9.069-3.136Z" transform="translate(0 0)" fill="#fff"/>
    <path id="Path_3672" data-name="Path 3672" d="M-27.44,243.8V223.137a11.312,11.312,0,0,0,7.158,3.271c-.116,1.277-.2,2.514-.344,3.74a26.842,26.842,0,0,1-1.584,6.535,15.072,15.072,0,0,1-4.914,6.9C-27.22,243.658-27.317,243.72-27.44,243.8Z" transform="translate(-154.019 -30.588)"/>
  </g>
</svg>
