<svg xmlns="http://www.w3.org/2000/svg" width="24.673" height="24.516" viewBox="0 0 24.673 24.516">
  <path id="Path_4242" data-name="Path 4242" d="M1320.008,974.274c0,1.271-.036,2.544.014,3.813.027.684-.135.877-.845.738a12.355,12.355,0,1,1,5.791-.28c-.515.147-.712.1-.706-.509q.041-3.851,0-7.7c-.006-.555.2-.718.71-.668.3.029.61.005.915.005,1.271,0,1.273,0,1.419-1.294.062-.555.105-1.113.173-1.667.048-.389-.082-.552-.495-.539-.736.024-1.474,0-2.211.009-.351.006-.511-.119-.5-.486.018-.559-.011-1.119.008-1.678a.954.954,0,0,1,1.019-1c.558-.026,1.119-.024,1.677,0,.376.014.563-.093.552-.508-.021-.864-.021-1.729,0-2.593.007-.367-.142-.495-.491-.489-1.194.021-2.393-.032-3.582.058a3.489,3.489,0,0,0-3.429,3.583c-.039.837-.03,1.678-.007,2.516.012.443-.1.62-.591.627-1.475.021-1.475.044-1.475,1.543,0,.076,0,.153,0,.229.033.529-.21,1.177.11,1.557s.961.119,1.459.126c.433.006.5.218.493.572C1320,971.579,1320.008,972.926,1320.008,974.274Z" transform="translate(-1309.174 -954.352)" fill="#fff"/>
</svg>
