<svg xmlns="http://www.w3.org/2000/svg" xmlns:xlink="http://www.w3.org/1999/xlink" width="13.668" height="13.668" viewBox="0 0 13.668 13.668">
  <defs>
    <clipPath id="clip-path">
      <rect id="Rectangle_784" data-name="Rectangle 784" width="13.668" height="13.668" fill="#fff"/>
    </clipPath>
  </defs>
  <g id="Mask_Group_4" data-name="Mask Group 4" clip-path="url(#clip-path)">
    <g id="Layer_2" data-name="Layer 2" transform="translate(0.555 0)">
      <g id="Layer_1" data-name="Layer 1">
        <g id="spare_parts" data-name="spare parts">
          <path id="Path_171" data-name="Path 171" d="M3.133,11.684,2.4,11.368a.55.55,0,0,1-.065-.041c.056-.128.108-.255.167-.378a.092.092,0,0,0-.04-.142c-.084-.05-.162-.109-.243-.164-.191-.129-.191-.129-.367.031l-.21.189L1.026,10.3c.1-.1.184-.2.277-.284a.121.121,0,0,0,.019-.191c-.1-.133-.2-.274-.289-.416a.11.11,0,0,0-.164-.046c-.129.058-.262.107-.408.165L.155,8.762C.283,8.7.4,8.644.516,8.6A.112.112,0,0,0,.6,8.445C.566,8.288.549,8.129.514,7.974a.139.139,0,0,0-.1-.083C.31,7.879.2,7.891.1,7.883c-.032,0-.09-.038-.091-.059C0,7.542,0,7.259,0,6.963H.506c.055-.2.11-.4.154-.59A.13.13,0,0,0,.6,6.27C.476,6.207.349,6.155.205,6.09l.344-.8c.142.056.266.111.4.155a.137.137,0,0,0,.12-.021c.117-.155.225-.318.343-.489L1.03,4.6l.56-.613c.115.086.223.163.326.245a.112.112,0,0,0,.163.007c.129-.1.263-.2.4-.289A.1.1,0,0,0,2.516,3.8c-.052-.121-.1-.246-.15-.384l.764-.306c.058.129.115.244.16.363.032.083.077.1.163.084a3.977,3.977,0,0,1,.434-.067c.1-.01.126-.053.121-.147-.007-.119,0-.24,0-.371h.925c0,.141,0,.281,0,.422,0,.08.018.12.1.136a4.436,4.436,0,0,1,.44.107c.085.027.12,0,.151-.077.053-.13.115-.257.179-.4l.8.351c-.057.136-.116.26-.16.388a.141.141,0,0,0,.029.129c.146.114.3.218.466.334l.357-.379.613.56c-.095.112-.182.221-.277.325a.114.114,0,0,0-.009.172c.115.152.221.31.338.477l.512-.2.309.765c-.125.056-.243.115-.364.162A.112.112,0,0,0,8.33,6.4c.031.152.053.306.071.46.009.079.041.107.119.1.133-.005.264,0,.4,0v.924a2.571,2.571,0,0,1-.3,0c-.125-.015-.171.039-.19.155-.024.144-.069.285-.093.429a.148.148,0,0,0,.056.12c.088.058.187.1.3.16-.145.1-.273.191-.4.277q-1.512.986-3.026,1.967a.2.2,0,0,1-.16.027,1.235,1.235,0,0,0-1.468.182c-.058.051-.1.084-.187.053-.025-.01-.086.028-.107.059C3.27,11.43,3.2,11.554,3.133,11.684ZM7.286,7.407A2.7,2.7,0,0,0,4.568,4.646,2.749,2.749,0,0,0,1.625,7.4,2.839,2.839,0,0,0,4.469,10.25,2.8,2.8,0,0,0,7.286,7.407Z" transform="translate(0 -0.07)" fill="#fff"/>
          <path id="Path_172" data-name="Path 172" d="M3.417,12.7a.872.872,0,0,1,.027-.637,1.283,1.283,0,0,1,1.779-.634c.077.049.123.015.178-.021L8.71,9.245c.266-.175.53-.357.8-.529A.172.172,0,0,0,9.6,8.533a1.3,1.3,0,0,1,.954-1.379,1.272,1.272,0,0,1,.923.137c-.218.151-.414.293-.618.424a.252.252,0,0,0-.133.236c0,.164-.022.328-.021.492a.174.174,0,0,0,.076.131c.17.086.345.163.522.232a.192.192,0,0,0,.143-.031c.226-.14.448-.287.681-.438a.789.789,0,0,1,.01.55,1.275,1.275,0,0,1-1.824.727.169.169,0,0,0-.149.009q-1.306.838-2.606,1.683c-.5.324-.992.657-1.492.979a.222.222,0,0,0-.123.236,1.154,1.154,0,0,1-.342.969,1.277,1.277,0,0,1-1.394.241c.192-.156.373-.31.561-.451a.229.229,0,0,0,.111-.221,2.183,2.183,0,0,1-.013-.358.25.25,0,0,0-.194-.281c-.669-.269-.4-.284-1,.1C3.587,12.568,3.512,12.63,3.417,12.7Z" transform="translate(-0.08 -0.169)" fill="#fff"/>
          <path id="Path_173" data-name="Path 173" d="M9.079.205,9.6.56A2.3,2.3,0,0,0,9.44.8a.168.168,0,0,0,0,.138q.157.263.334.513a.187.187,0,0,0,.137.062,1.774,1.774,0,0,0,.275-.044l.133.581a.467.467,0,0,1-.119.04c-.209.008-.286.129-.3.322a1.863,1.863,0,0,1-.072.352.16.16,0,0,0,.086.218,1.981,1.981,0,0,1,.2.137l-.323.475a.375.375,0,0,1-.056-.022c-.235-.149-.233-.147-.459.005a3.157,3.157,0,0,1-.344.2.124.124,0,0,0-.08.157,2.466,2.466,0,0,1,.023.247l-.584.1c-.013-.046-.024-.075-.03-.1-.048-.237-.048-.237-.279-.279-.144-.027-.29-.049-.43-.088a.165.165,0,0,0-.218.088,1.46,1.46,0,0,1-.12.16l-.523-.354c.019-.037.032-.065.048-.09.145-.228.145-.228-.02-.448a1.63,1.63,0,0,1-.119-.16c-.095-.165-.209-.281-.422-.218a.1.1,0,0,1-.088-.048C6.043,2.574,6,2.4,5.961,2.234,6,2.215,6.018,2.2,6.034,2.2c.231.008.307-.128.329-.333a2.18,2.18,0,0,1,.088-.389.138.138,0,0,0-.07-.187c-.068-.041-.129-.094-.2-.148l.326-.48a2.254,2.254,0,0,1,.217.128.148.148,0,0,0,.2,0A4.79,4.79,0,0,1,7.347.512a.187.187,0,0,0,.1-.229C7.434.219,7.43.153,7.42.074,7.6.047,7.773.016,7.944,0a.134.134,0,0,1,.1.083c.024.213.149.279.349.284a1.024,1.024,0,0,1,.334.08.161.161,0,0,0,.229-.08A1.815,1.815,0,0,1,9.079.205Zm.188,1.942A1.152,1.152,0,0,0,8.123,1.017a1.1,1.1,0,0,0-1.1,1.1,1.121,1.121,0,0,0,2.242.027Z" transform="translate(-0.141 0)" fill="#fff"/>
        </g>
      </g>
    </g>
  </g>
</svg>
