<svg xmlns="http://www.w3.org/2000/svg" width="24.76" height="34.127" viewBox="0 0 24.76 34.127">
  <g id="Group_391" data-name="Group 391" transform="translate(-439 -313)">
    <g id="Group_390" data-name="Group 390" transform="translate(439 313)">
      <path id="Path_3543" data-name="Path 3543" d="M-45.5-114.586a20.452,20.452,0,0,1-3.371,9.992,47.688,47.688,0,0,1-6.168,8.041c-.349.372-.6.67-1.1.122-3.755-4.126-7.142-8.491-8.926-13.873-1.674-5.052-.283-9.789,3.718-12.465a9.668,9.668,0,0,1,10.531-.528A9.754,9.754,0,0,1-45.5-114.586Zm-10.168-6.2a6.264,6.264,0,0,0-6.222,6.286,6.307,6.307,0,0,0,6.22,6.2,6.311,6.311,0,0,0,6.28-6.251A6.275,6.275,0,0,0-55.666-120.79Z" transform="translate(68.019 124.606)" fill="#fff"/>
      <path id="Path_3544" data-name="Path 3544" d="M-59.6-6.157c.341-.883.916-1.1,1.86-.864A15.161,15.161,0,0,1-53.02-5.247c2.109,1.382,2.082,3.109-.06,4.468A15.209,15.209,0,0,1-59.3,1.213a28.653,28.653,0,0,1-13.229-1A8.627,8.627,0,0,1-74.845-.933c-1.819-1.31-1.834-2.885-.009-4.179a13.158,13.158,0,0,1,5-1.91c1.186-.254,1.185-.257,1.856.9A14.617,14.617,0,0,0-71.7-5.1c-.539.261-1.223.515-1.174,1.253.043.656.671.895,1.2,1.107a21.688,21.688,0,0,0,8.185,1.127,22.052,22.052,0,0,0,6.726-.84c.79-.251,1.922-.423,1.936-1.439s-1.1-1.22-1.889-1.493C-57.652-5.7-58.63-5.9-59.6-6.157Z" transform="translate(76.216 32.574)" fill="#fff"/>
    </g>
  </g>
</svg>
