<svg xmlns="http://www.w3.org/2000/svg" width="36.627" height="24" viewBox="0 0 36.627 24">
  <g id="Group_393" data-name="Group 393" transform="translate(-500 -411)">
    <g id="Group_392" data-name="Group 392" transform="translate(500 411)">
      <path id="Path_3545" data-name="Path 3545" d="M-364.915,21.89c.294.319.4.458.527.569,5.3,4.6,10.613,9.181,15.891,13.8.621.544.936.3,1.416-.121q7.742-6.732,15.5-13.444c.228-.2.664-.325.533-.807Z" transform="translate(366.147 -21.89)" fill="#fff"/>
      <path id="Path_3546" data-name="Path 3546" d="M-330.022,83.113c-4.162-3.571-8.078-6.919-11.975-10.29a.769.769,0,0,0-1.22.014c-1.054.936-2.181,1.791-3.228,2.736a.907.907,0,0,1-1.448,0c-1.019-.909-2.135-1.71-3.143-2.63-.6-.544-.982-.458-1.551.04-3.653,3.191-7.337,6.346-11.005,9.521-.174.15-.5.246-.353.613Z" transform="translate(365.463 -59.113)" fill="#fff"/>
      <path id="Path_3547" data-name="Path 3547" d="M-369.565,47.793c.162-.013.271.013.322-.03,3.909-3.361,7.806-6.737,11.728-10.082.617-.526.243-.747-.147-1.082q-4.861-4.181-9.708-8.378c-.68-.587-1.37-1.164-2.194-1.864Z" transform="translate(369.565 -25.172)" fill="#fff"/>
      <path id="Path_3548" data-name="Path 3548" d="M-265.466,26.485c-.409.307-.657.472-.881.664-3.6,3.111-7.176,6.25-10.813,9.318-.768.648-.857.946-.04,1.627,2.944,2.453,5.818,4.99,8.727,7.485A21.7,21.7,0,0,0-265.466,48Z" transform="translate(302.093 -25.268)" fill="#fff"/>
    </g>
  </g>
</svg>
