<svg xmlns="http://www.w3.org/2000/svg" width="21.779" height="16.334" viewBox="0 0 21.779 16.334">
  <path id="Icon_awesome-car" data-name="Icon awesome-car" d="M21.268,9.264H18.722l-.708-1.77A4.74,4.74,0,0,0,13.591,4.5h-5.4A4.741,4.741,0,0,0,3.765,7.495l-.708,1.77H.511a.51.51,0,0,0-.5.634l.255,1.021a.51.51,0,0,0,.5.387H1.62a2.7,2.7,0,0,0-.939,2.042V15.39a2.7,2.7,0,0,0,.681,1.784v2.3a1.361,1.361,0,0,0,1.361,1.361H4.084a1.361,1.361,0,0,0,1.361-1.361V18.112h10.89v1.361A1.361,1.361,0,0,0,17.7,20.834h1.361a1.361,1.361,0,0,0,1.361-1.361v-2.3A2.7,2.7,0,0,0,21.1,15.39V13.348a2.7,2.7,0,0,0-.939-2.042h.854a.51.51,0,0,0,.5-.387L21.764,9.9a.511.511,0,0,0-.5-.634ZM6.293,8.506a2.042,2.042,0,0,1,1.9-1.283h5.4a2.042,2.042,0,0,1,1.9,1.283l.848,2.12H5.445l.848-2.12ZM4.084,15.381a1.284,1.284,0,0,1-1.361-1.357,1.284,1.284,0,0,1,1.361-1.357A2.619,2.619,0,0,1,6.125,14.7C6.125,15.517,4.9,15.381,4.084,15.381Zm13.612,0c-.817,0-2.042.136-2.042-.678A2.619,2.619,0,0,1,17.7,12.667a1.284,1.284,0,0,1,1.361,1.357A1.284,1.284,0,0,1,17.7,15.381Z" transform="translate(0 -4.5)" fill="#fff"/>
</svg>
