<svg xmlns="http://www.w3.org/2000/svg" width="21.779" height="19.896" viewBox="0 0 21.779 19.896">
  <g id="Group_416" data-name="Group 416" transform="translate(571 -1393.57)">
    <path id="Path_3579" data-name="Path 3579" d="M-549.221,1400.684a12.85,12.85,0,0,1-.78,2.4,10.166,10.166,0,0,1-1.7,2.175c-2.608,2.648-5.255,5.258-7.888,7.881-.435.433-.6.434-1.039,0l-8.357-8.332a6.431,6.431,0,0,1-1.936-3.915.964.964,0,0,0-.077-.211v-1.21a1.408,1.408,0,0,0,.084-.253,6.513,6.513,0,0,1,7.545-5.551,6.9,6.9,0,0,1,3.256,1.5l.458-.339a6.535,6.535,0,0,1,9.6,2.164,16.4,16.4,0,0,1,.835,2.482Zm-10.979,11.7a1.285,1.285,0,0,0,.191-.1c2.787-2.78,5.6-5.533,8.351-8.35a5.587,5.587,0,0,0-.118-7.811,5.682,5.682,0,0,0-7.793-.211c-.492.445-.592.445-1.081,0a5.682,5.682,0,0,0-6.614-.693,5.615,5.615,0,0,0-1.243,8.783c1.383,1.444,2.829,2.827,4.238,4.246C-562.9,1409.621-561.553,1411.005-560.2,1412.381Z" transform="translate(0 0)" fill="#fff"/>
  </g>
</svg>
