<svg xmlns="http://www.w3.org/2000/svg" width="29.42" height="29.42" viewBox="0 0 29.42 29.42">
  <g id="File" transform="translate(4.788) rotate(11)">
    <rect id="Rectangle_314" data-name="Rectangle 314" width="25" height="25" fill="none"/>
    <path id="Path_125" data-name="Path 125" d="M8.782,25.093a7.913,7.913,0,0,1-5.855-2.509A8.078,8.078,0,0,1,0,16.31a8.391,8.391,0,0,1,.627-3.137,7.231,7.231,0,0,1,1.464-2.509L6.273,6.482a5.039,5.039,0,0,1,3.764-1.464A5.713,5.713,0,0,1,14.01,6.691a5.369,5.369,0,0,1,1.673,4.182,5.039,5.039,0,0,1-1.464,3.764l-2.3,2.091a1.6,1.6,0,0,1-1.046.418,2.242,2.242,0,0,1-1.255-.418A2.972,2.972,0,0,1,9.2,15.474a2.972,2.972,0,0,1,.418-1.255l2.3-2.3a1.264,1.264,0,0,0,.627-1.255,2.554,2.554,0,0,0-.836-1.882,2.437,2.437,0,0,0-1.464-.418,3.022,3.022,0,0,0-1.464.418L4.391,12.965A5.785,5.785,0,0,0,3.346,16.31a6.117,6.117,0,0,0,1.673,3.973A4.339,4.339,0,0,0,7.11,21.538a3.615,3.615,0,0,0,2.091.209c.627-.209,1.255-.209,1.673-.418a4.374,4.374,0,0,0,1.255-.836l8.364-8.364a4.586,4.586,0,0,0,1.464-3.555A5.478,5.478,0,0,0,20.074,4.6a9.312,9.312,0,0,0-2.509-1.255H15.683a4.428,4.428,0,0,0-1.464.627,2.652,2.652,0,0,1-1.255.209,1.389,1.389,0,0,1-1.046-.836c-.209-.209-.209-.627-.209-1.255a3.671,3.671,0,0,1,.836-1.046A8.236,8.236,0,0,1,16.729,0a7.741,7.741,0,0,1,5.437,2.091,8.824,8.824,0,0,1,2.927,6.273,8.183,8.183,0,0,1-2.3,6.064l-8.364,8.364A7.722,7.722,0,0,1,8.782,25.093Z" fill="#fff"/>
  </g>
</svg>
