<svg xmlns="http://www.w3.org/2000/svg" xmlns:xlink="http://www.w3.org/1999/xlink" width="13.668" height="13.668" viewBox="0 0 13.668 13.668">
  <defs>
    <clipPath id="clip-path">
      <rect id="Rectangle_786" data-name="Rectangle 786" width="13.668" height="13.668" fill="#fff"/>
    </clipPath>
  </defs>
  <g id="Mask_Group_5" data-name="Mask Group 5" clip-path="url(#clip-path)">
    <g id="Layer_2" data-name="Layer 2" transform="translate(-0.002)">
      <g id="Layer_1" data-name="Layer 1">
        <g id="tire_shop" data-name="tire shop">
          <path id="Path_174" data-name="Path 174" d="M1.006,10.451l.443-.377L1.28,9.942l-.3.38L.916,10.3.388,9.185l.486-.316L.782,8.753l-.45.281L.044,7.8.59,7.586.515,7.458l-.488.183V6.368c.146-.025.292-.044.435-.077.036-.008.059-.064.089-.1a.386.386,0,0,0-.133-.039c-.126.011-.25.034-.419.059L.233,4.966c.178.009.329.021.48.019.037,0,.073-.05.11-.076C.784,4.885.747,4.845.7,4.84c-.126-.015-.253-.017-.43-.027.174-.417.333-.8.49-1.176l.563.151c.057-.119.031-.159-.078-.178a3.849,3.849,0,0,1-.408-.116L1.568,2.45l.53.275.052-.138L1.67,2.328l.925-.873.46.372c.1-.085.1-.133,0-.2a4.27,4.27,0,0,1-.337-.277L3.807.693l.385.474.1-.109L3.948.623,5.154.2l.274.545L5.547.664C5.473.508,5.4.358,5.31.163L6.571.008,6.725.58c.119-.015.163-.04.119-.153A3.885,3.885,0,0,1,6.73,0L8.005.106c.009.217.018.4.026.587.117.022.157,0,.148-.109-.01-.136,0-.274,0-.448L9.381.5l-.1.583c.119.04.163.027.17-.091A3.972,3.972,0,0,1,9.529.559l1.113.618-.211.548c.112.066.156.054.184-.059a3.382,3.382,0,0,1,.16-.4l.963.834-.332.5.137.059.3-.449.767,1.013-.449.409.165.119.313-.376.073.02.523,1.119-.5.322.089.116.463-.286.284,1.237-.554.217.076.127.489-.183V7.341c-.148.026-.3.047-.447.081-.032.007-.053.059-.079.093.039.016.08.05.117.046.13-.013.259-.038.431-.065-.085.445-.163.846-.241,1.248-.174-.008-.321-.02-.467-.018-.038,0-.075.048-.112.074.038.024.075.065.116.07.125.015.252.017.421.027l-.5,1.168-.563-.146-.009.146.5.144-.729,1.038-.506-.258-.059.135.463.242L11,12.232l-.443-.348c-.1.085-.094.133,0,.194a3.828,3.828,0,0,1,.313.253l-1.083.652-.379-.457-.083.128.318.4-1.2.412-.267-.508-.115.089.226.458-1.253.155-.155-.534c-.126.015-.153.055-.112.159a3.633,3.633,0,0,1,.1.38l-1.26-.1c-.014-.2-.025-.379-.037-.556-.119-.012-.155.019-.142.121s.013.234.019.378a6.067,6.067,0,0,1-1.208-.352c.028-.18.054-.353.081-.527-.112-.047-.16-.034-.167.084s-.039.239-.066.4L2.988,12.5l.2-.521c-.1-.059-.153-.065-.182.054a3,3,0,0,1-.148.377L1.9,11.586l.3-.472c-.091-.082-.141-.085-.193.019a3.972,3.972,0,0,1-.221.34Zm10.8-3.606a5,5,0,1,0-5.022,4.991A5,5,0,0,0,11.81,6.844Z" transform="translate(0.001)" fill="#fff"/>
          <path id="Path_175" data-name="Path 175" d="M6.855,11.767A4.886,4.886,0,1,1,11.743,6.9,4.881,4.881,0,0,1,6.855,11.767Zm.491-6.849c0,.4,0,.68,0,.961,0,.224.1.3.312.227.441-.143.882-.285,1.323-.43A4.657,4.657,0,0,0,10.545,4.8c.1-.081.115-.141.042-.253A4.4,4.4,0,0,0,8.074,2.654c-.361-.106-.283-.137-.417.212a5.07,5.07,0,0,0-.31,2.052Zm-.982.131V4.975A5.413,5.413,0,0,0,5.993,2.7c-.04-.1-.085-.123-.187-.1a4.444,4.444,0,0,0-2.7,1.965c-.059.092-.052.148.035.208a6.764,6.764,0,0,0,1.014.658c.633.271,1.3.469,1.951.691.15.051.252-.041.254-.214.005-.288,0-.574,0-.86Zm4.887,1.382a3.648,3.648,0,0,0-1.367.044c-.635.158-1.259.362-1.885.553-.244.074-.282.217-.13.424l.69.945A5.176,5.176,0,0,0,10,9.749c.1.063.154.057.23-.035a4.353,4.353,0,0,0,1.024-2.629c.009-.215,0-.431,0-.654Zm-8.762,0a.257.257,0,0,0-.017.05A4.373,4.373,0,0,0,3.5,9.738c.059.071.1.074.184.028A7.621,7.621,0,0,0,5.9,7.35a.211.211,0,0,0-.109-.3,2.49,2.49,0,0,0-.252-.086A11.277,11.277,0,0,0,3.634,6.44a4.164,4.164,0,0,0-1.145-.009Zm4.361,4.857a4.568,4.568,0,0,0,1.662-.324c.1-.04.144-.082.1-.2-.125-.332-.219-.677-.366-1a11.474,11.474,0,0,0-1.214-1.8.223.223,0,0,0-.377.025c-.178.237-.345.482-.525.717A5.489,5.489,0,0,0,5.1,10.772c-.025.1-.006.148.093.188a4.578,4.578,0,0,0,1.661.329ZM7.6,6.9a.749.749,0,1,0-1.5.043.751.751,0,0,0,.763.708A.741.741,0,0,0,7.6,6.9Z" transform="translate(-0.046 -0.047)" fill="#fff"/>
        </g>
      </g>
    </g>
  </g>
</svg>
