<svg id="outline-message-24px" xmlns="http://www.w3.org/2000/svg" width="39.473" height="39.473" viewBox="0 0 39.473 39.473">
  <g id="Bounding_Boxes" transform="translate(0 0)">
    <path id="Path_2743" data-name="Path 2743" d="M0,0H39.473V39.473H0Z" fill="none"/>
  </g>
  <g id="Outline" transform="translate(3.289 3.289)">
    <g id="Group_183" data-name="Group 183">
      <path id="XMLID_641_" d="M5.289,5.289H31.6V25.026H7.214L5.289,26.95V5.289h0M5.289,2A3.285,3.285,0,0,0,2.016,5.289L2,34.894l6.579-6.579H31.6a3.3,3.3,0,0,0,3.289-3.289V5.289A3.3,3.3,0,0,0,31.6,2Z" transform="translate(-2 -2)"/>
      <path id="XMLID_644_" d="M6,12H25.736v3.289H6Z" transform="translate(0.579 4.447)"/>
      <path id="XMLID_643_" d="M6,9H25.736v3.289H6Z" transform="translate(0.579 2.513)"/>
      <path id="XMLID_642_" d="M6,6H25.736V9.289H6Z" transform="translate(0.579 0.579)"/>
    </g>
  </g>
</svg>
